# xmcd
#
# Track frame offsets:
#	150
#	13677
#	34431
#	47481
#	67762
#	89223
#	103245
#	124651
#
# Disc length: 1834 seconds
#
# Revision: 1
# Processed by: cddbd v1.5.2PL0 Copyright (c) Steve Scherf et al.
# Submitted via: EasyCDDAExtractor 10.0.2.1
#
DISCID=6a072808
DTITLE=Wes Nickson - Tired of Waiting
DYEAR=2005
DGENRE=Country
TTITLE0=Tired of Waiting
TTITLE1=Shattered
TTITLE2=Porch Swing
TTITLE3=Barely Holding On
TTITLE4=Roses
TTITLE5=Without You
TTITLE6=Old Photograph
TTITLE7=Louise
EXTD=
EXTT0=
EXTT1=
EXTT2=
EXTT3=
EXTT4=
EXTT5=
EXTT6=
EXTT7=
PLAYORDER=
